<?xml version="1.0" standalone="no"?>
<!DOCTYPE svg PUBLIC "-//W3C//DTD SVG 20010904//EN"
 "http://www.w3.org/TR/2001/REC-SVG-20010904/DTD/svg10.dtd">
<svg version="1.0" xmlns="http://www.w3.org/2000/svg"
 width="280.000000pt" height="60.000000pt" viewBox="0 0 280.000000 60.000000"
 preserveAspectRatio="xMidYMid meet">

<g transform="translate(0.000000,60.000000) scale(0.100000,-0.100000)"
fill="#000000" stroke="none">
<path d="M23 524 c-7 -6 -8 -15 -3 -20 4 -5 29 -70 55 -144 106 -305 95 -283
138 -284 20 -1 37 1 37 3 0 5 -139 401 -150 427 -10 25 -61 36 -77 18z"/>
<path d="M345 518 c-9 -30 -88 -256 -100 -288 -10 -29 -10 -41 0 -70 7 -19 16
-44 20 -55 6 -15 14 -2 35 60 15 44 49 139 74 211 25 73 46 137 46 143 0 15
-70 14 -75 -1z"/>
<path d="M481 518 c0 -7 13 -47 28 -88 21 -55 34 -76 48 -78 17 -3 25 11 52
84 17 48 29 89 27 92 -14 14 -34 -13 -51 -67 -10 -34 -22 -61 -26 -61 -4 0
-17 29 -29 65 -13 39 -27 65 -36 65 -8 0 -14 -6 -13 -12z"/>
<path d="M667 524 c-4 -4 -7 -45 -7 -91 0 -72 2 -83 18 -83 15 0 17 10 15 87
-1 81 -8 104 -26 87z"/>
<path d="M730 440 c0 -73 3 -90 15 -90 10 0 15 11 15 35 0 44 10 44 34 1 10
-19 27 -36 37 -39 23 -6 23 -8 3 32 -15 30 -15 34 0 50 41 45 4 101 -66 101
l-38 0 0 -90z m80 50 c20 -13 2 -44 -29 -48 -18 -3 -21 2 -21 27 0 33 19 41
50 21z"/>
<path d="M870 516 c0 -9 11 -16 28 -18 27 -3 27 -4 27 -76 0 -62 2 -72 18 -72
15 0 17 10 17 75 l0 75 31 0 c20 0 29 4 27 13 -3 8 -30 13 -76 15 -58 2 -72 0
-72 -12z"/>
<path d="M1040 451 c0 -71 2 -82 22 -95 28 -20 58 -20 86 0 20 13 22 24 22 95
0 62 -3 79 -15 79 -11 0 -15 -17 -17 -71 -2 -54 -7 -75 -20 -82 -32 -20 -48 8
-48 84 0 55 -3 69 -15 69 -12 0 -15 -15 -15 -79z"/>
<path d="M1218 440 c-31 -80 -33 -90 -17 -90 10 0 21 9 24 20 5 15 15 20 45
20 30 0 40 -5 45 -20 6 -20 35 -29 35 -11 0 6 -14 46 -32 90 -42 108 -54 107
-100 -9z m69 10 c11 -29 10 -30 -17 -30 -28 0 -29 1 -19 30 6 17 14 30 18 30
4 0 12 -13 18 -30z"/>
<path d="M1380 440 l0 -90 55 0 c62 0 75 17 18 22 l-38 3 -3 78 c-2 59 -6 77
-17 77 -12 0 -15 -18 -15 -90z"/>
<path d="M506 254 c-20 -19 -21 -58 -2 -73 8 -7 27 -16 43 -20 18 -5 28 -14
28 -27 0 -24 -37 -31 -55 -9 -12 14 -40 21 -40 9 0 -19 24 -43 50 -49 46 -10
82 17 78 58 -3 28 -8 34 -45 45 -44 14 -56 37 -27 49 9 3 25 1 36 -6 27 -17
43 -3 22 20 -21 23 -67 25 -88 3z"/>
<path d="M667 250 c-67 -53 -25 -170 62 -170 12 0 35 13 53 29 30 27 32 30 14
37 -13 5 -21 3 -24 -5 -7 -20 -51 -32 -73 -20 -41 21 -44 86 -5 111 18 13 53
9 66 -7 16 -19 40 -19 40 -1 0 43 -89 60 -133 26z"/>
<path d="M837 263 c-4 -3 -7 -44 -7 -90 0 -76 2 -83 20 -83 16 0 20 7 20 35 0
34 1 35 40 35 39 0 40 -1 40 -35 0 -24 5 -35 15 -35 12 0 15 17 15 90 0 73 -3
90 -15 90 -11 0 -15 -11 -15 -40 l0 -40 -40 0 -40 0 0 40 c0 38 -14 52 -33 33z"/>
<path d="M1055 258 c-52 -28 -62 -97 -21 -145 34 -39 98 -39 132 0 67 78 -22
194 -111 145z m94 -49 c30 -53 -21 -115 -72 -88 -41 22 -49 58 -21 97 22 32
73 27 93 -9z"/>
<path d="M1239 241 c-45 -46 -32 -123 26 -149 40 -18 62 -15 97 17 27 24 33
36 33 71 0 84 -95 121 -156 61z m105 -17 c9 -8 16 -31 16 -49 0 -70 -86 -84
-110 -19 -10 26 1 61 24 76 19 13 54 9 70 -8z"/>
<path d="M1420 180 l0 -90 61 0 c44 0 60 3 57 13 -3 6 -23 13 -46 15 l-42 3 0
75 c0 59 -3 74 -15 74 -12 0 -15 -17 -15 -90z"/>
<path d="M1610 262 c0 -4 13 -44 29 -88 41 -113 58 -112 99 2 18 48 30 90 27
92 -13 14 -33 -13 -50 -67 -10 -34 -21 -61 -25 -61 -3 0 -17 29 -29 65 -14 38
-29 65 -37 65 -8 0 -14 -4 -14 -8z"/>
<path d="M1797 264 c-4 -4 -7 -45 -7 -91 0 -77 2 -83 20 -83 20 0 21 5 18 87
-3 79 -12 106 -31 87z"/>
<path d="M1887 250 c-67 -53 -26 -170 61 -170 24 0 72 37 72 56 0 18 -20 18
-34 0 -22 -28 -54 -29 -82 -1 -20 20 -24 32 -19 53 11 48 68 70 95 37 16 -19
40 -19 40 -1 0 22 -40 46 -76 46 -17 0 -43 -9 -57 -20z"/>
<path d="M2040 256 c0 -9 11 -16 28 -18 27 -3 27 -4 27 -76 0 -62 2 -72 18
-72 15 0 17 10 17 75 l0 75 31 0 c20 0 29 4 27 13 -3 8 -30 13 -76 15 -58 2
-72 0 -72 -12z"/>
<path d="M2219 241 c-37 -38 -39 -88 -5 -128 53 -61 156 -21 156 62 0 47 -8
64 -41 80 -43 23 -77 18 -110 -14z m103 -18 c18 -16 24 -59 10 -79 -4 -6 -18
-17 -31 -24 -20 -10 -27 -9 -50 7 -32 24 -38 56 -17 89 19 28 60 32 88 7z"/>
<path d="M2400 180 c0 -73 3 -90 15 -90 10 0 15 11 15 35 0 45 16 45 37 0 10
-21 24 -35 35 -35 17 0 17 2 2 34 -16 32 -16 34 5 55 27 27 26 36 -4 66 -18
18 -35 25 -65 25 l-40 0 0 -90z m88 33 c3 -20 -1 -23 -27 -23 -27 0 -31 4 -31
26 0 22 4 25 28 22 19 -2 28 -9 30 -25z"/>
<path d="M2550 180 c0 -73 3 -90 15 -90 12 0 15 17 15 90 0 73 -3 90 -15 90
-12 0 -15 -17 -15 -90z"/>
<path d="M2646 198 c-40 -108 -40 -108 -23 -108 9 0 19 9 22 20 9 29 85 29 92
0 3 -11 14 -20 24 -20 18 0 18 2 -2 52 -12 29 -26 69 -32 88 -8 23 -19 36 -33
38 -18 3 -25 -8 -48 -70z m62 -3 c16 -35 16 -35 -13 -35 -27 0 -28 3 -19 38 8
29 18 28 32 -3z"/>
</g>
</svg>
